<?xml version="1.0" encoding="UTF-8"?>
<svg xmlns="http://www.w3.org/2000/svg" xmlns:xlink="http://www.w3.org/1999/xlink" width="518pt" height="449.81pt" viewBox="0 0 518 449.81" version="1.1">
<defs>
<clipPath id="clip1">
  <path d="M 0 0 L 518 0 L 518 449.808594 L 0 449.808594 Z M 0 0 "/>
</clipPath>
</defs>
<g id="surface1">
<g clip-path="url(#clip1)" clip-rule="nonzero">
<path style=" stroke:none;fill-rule:nonzero;fill:rgb(100%,100%,100%);fill-opacity:1;" d="M 0.25 449.558594 L 517.75 449.558594 L 517.75 0.253906 L 0.25 0.253906 L 0.25 449.558594 "/>
</g>
<path style="fill:none;stroke-width:10;stroke-linecap:round;stroke-linejoin:round;stroke:rgb(0%,0%,50.193787%);stroke-opacity:1;stroke-miterlimit:10;" d="M 417.421875 475.053125 L 45 45.014063 " transform="matrix(0.1,0,0,-0.1,0,449.81)"/>
<path style="fill:none;stroke-width:10;stroke-linecap:round;stroke-linejoin:round;stroke:rgb(0%,0%,50.193787%);stroke-opacity:1;stroke-miterlimit:10;" d="M 789.882812 905.092188 L 417.421875 475.053125 " transform="matrix(0.1,0,0,-0.1,0,449.81)"/>
<path style="fill:none;stroke-width:10;stroke-linecap:round;stroke-linejoin:round;stroke:rgb(0%,0%,50.193787%);stroke-opacity:1;stroke-miterlimit:10;" d="M 1038.164062 1120.13125 L 789.882812 905.092188 " transform="matrix(0.1,0,0,-0.1,0,449.81)"/>
<path style="fill:none;stroke-width:10;stroke-linecap:round;stroke-linejoin:round;stroke:rgb(0%,0%,50.193787%);stroke-opacity:1;stroke-miterlimit:10;" d="M 2652.070312 3700.482813 L 1038.164062 1120.13125 " transform="matrix(0.1,0,0,-0.1,0,449.81)"/>
<path style="fill:none;stroke-width:10;stroke-linecap:round;stroke-linejoin:round;stroke:rgb(0%,0%,50.193787%);stroke-opacity:1;stroke-miterlimit:10;" d="M 1845.117188 2087.7875 L 1038.164062 1120.13125 " transform="matrix(0.1,0,0,-0.1,0,449.81)"/>
<path style="fill:none;stroke-width:10;stroke-linecap:round;stroke-linejoin:round;stroke:rgb(0%,0%,50.193787%);stroke-opacity:1;stroke-miterlimit:10;" d="M 2652.070312 3270.404688 L 1845.117188 2087.7875 " transform="matrix(0.1,0,0,-0.1,0,449.81)"/>
<path style="fill:none;stroke-width:10;stroke-linecap:round;stroke-linejoin:round;stroke:rgb(0%,0%,50.193787%);stroke-opacity:1;stroke-miterlimit:10;" d="M 2962.421875 3377.94375 L 2652.070312 3270.404688 " transform="matrix(0.1,0,0,-0.1,0,449.81)"/>
<path style="fill:none;stroke-width:10;stroke-linecap:round;stroke-linejoin:round;stroke:rgb(0%,0%,50.193787%);stroke-opacity:1;stroke-miterlimit:10;" d="M 2465.859375 2732.865625 L 1845.117188 2087.7875 " transform="matrix(0.1,0,0,-0.1,0,449.81)"/>
<path style="fill:none;stroke-width:10;stroke-linecap:round;stroke-linejoin:round;stroke:rgb(0%,0%,50.193787%);stroke-opacity:1;stroke-miterlimit:10;" d="M 1783.046875 1765.209375 L 1038.164062 1120.13125 " transform="matrix(0.1,0,0,-0.1,0,449.81)"/>
<path style="fill:none;stroke-width:10;stroke-linecap:round;stroke-linejoin:round;stroke:rgb(0%,0%,50.193787%);stroke-opacity:1;stroke-miterlimit:10;" d="M 2341.71875 1872.748438 L 1783.046875 1765.209375 " transform="matrix(0.1,0,0,-0.1,0,449.81)"/>
<path style="fill:none;stroke-width:10;stroke-linecap:round;stroke-linejoin:round;stroke:rgb(0%,0%,50.193787%);stroke-opacity:1;stroke-miterlimit:10;" d="M 2652.070312 2195.2875 L 2341.71875 1872.748438 " transform="matrix(0.1,0,0,-0.1,0,449.81)"/>
<path style="fill:none;stroke-width:10;stroke-linecap:round;stroke-linejoin:round;stroke:rgb(0%,0%,50.193787%);stroke-opacity:1;stroke-miterlimit:10;" d="M 2652.070312 1980.248438 L 2341.71875 1872.748438 " transform="matrix(0.1,0,0,-0.1,0,449.81)"/>
<path style="fill:none;stroke-width:10;stroke-linecap:round;stroke-linejoin:round;stroke:rgb(0%,0%,50.193787%);stroke-opacity:1;stroke-miterlimit:10;" d="M 3210.742188 1657.709375 L 1038.164062 1120.13125 " transform="matrix(0.1,0,0,-0.1,0,449.81)"/>
<path style="fill:none;stroke-width:10;stroke-linecap:round;stroke-linejoin:round;stroke:rgb(0%,0%,50.193787%);stroke-opacity:1;stroke-miterlimit:10;" d="M 3086.601562 1012.63125 L 789.882812 905.092188 " transform="matrix(0.1,0,0,-0.1,0,449.81)"/>
<path style="fill:none;stroke-width:10;stroke-linecap:round;stroke-linejoin:round;stroke:rgb(0%,0%,50.193787%);stroke-opacity:1;stroke-miterlimit:10;" d="M 3334.882812 1227.63125 L 3086.601562 1012.63125 " transform="matrix(0.1,0,0,-0.1,0,449.81)"/>
<path style="fill:none;stroke-width:10;stroke-linecap:round;stroke-linejoin:round;stroke:rgb(0%,0%,50.193787%);stroke-opacity:1;stroke-miterlimit:10;" d="M 3645.234375 1120.13125 L 3086.601562 1012.63125 " transform="matrix(0.1,0,0,-0.1,0,449.81)"/>
<path style="fill:none;stroke-width:10;stroke-linecap:round;stroke-linejoin:round;stroke:rgb(0%,0%,50.193787%);stroke-opacity:1;stroke-miterlimit:10;" d="M 417.421875 260.014063 L 45 45.014063 " transform="matrix(0.1,0,0,-0.1,0,449.81)"/>
<path style="fill:none;stroke-width:10;stroke-linecap:round;stroke-linejoin:round;stroke:rgb(0%,0%,50.193787%);stroke-opacity:1;stroke-miterlimit:10;" d="M 851.953125 152.514063 L 45 45.014063 " transform="matrix(0.1,0,0,-0.1,0,449.81)"/>
<path style="fill:none;stroke-width:10;stroke-linecap:round;stroke-linejoin:round;stroke:rgb(0%,0%,50.193787%);stroke-opacity:1;stroke-miterlimit:10;" d="M 4203.90625 367.553125 L 851.953125 152.514063 " transform="matrix(0.1,0,0,-0.1,0,449.81)"/>
<path style="fill:none;stroke-width:10;stroke-linecap:round;stroke-linejoin:round;stroke:rgb(0%,0%,50.193787%);stroke-opacity:1;stroke-miterlimit:10;" d="M 4886.71875 260.014063 L 851.953125 152.514063 " transform="matrix(0.1,0,0,-0.1,0,449.81)"/>
<path style="fill:none;stroke-width:10;stroke-linecap:round;stroke-linejoin:round;stroke:rgb(100%,0%,0%);stroke-opacity:1;stroke-miterlimit:10;" d="M 417.421875 475.053125 L 851.953125 152.514063 " transform="matrix(0.1,0,0,-0.1,0,449.81)"/>
<path style="fill:none;stroke-width:10;stroke-linecap:round;stroke-linejoin:round;stroke:rgb(100%,0%,0%);stroke-opacity:1;stroke-miterlimit:10;" d="M 789.882812 905.092188 L 4203.90625 367.553125 " transform="matrix(0.1,0,0,-0.1,0,449.81)"/>
<path style="fill:none;stroke-width:10;stroke-linecap:round;stroke-linejoin:round;stroke:rgb(100%,0%,0%);stroke-opacity:1;stroke-miterlimit:10;" d="M 1038.164062 1120.13125 L 3086.601562 1012.63125 " transform="matrix(0.1,0,0,-0.1,0,449.81)"/>
<path style="fill:none;stroke-width:10;stroke-linecap:round;stroke-linejoin:round;stroke:rgb(100%,0%,0%);stroke-opacity:1;stroke-miterlimit:10;" d="M 2652.070312 3700.482813 L 2962.421875 3377.94375 " transform="matrix(0.1,0,0,-0.1,0,449.81)"/>
<path style="fill:none;stroke-width:10;stroke-linecap:round;stroke-linejoin:round;stroke:rgb(100%,0%,0%);stroke-opacity:1;stroke-miterlimit:10;" d="M 1845.117188 2087.7875 L 2341.71875 1872.748438 " transform="matrix(0.1,0,0,-0.1,0,449.81)"/>
<path style="fill:none;stroke-width:10;stroke-linecap:round;stroke-linejoin:round;stroke:rgb(100%,0%,0%);stroke-opacity:1;stroke-miterlimit:10;" d="M 2652.070312 3270.404688 L 4886.71875 260.014063 " transform="matrix(0.1,0,0,-0.1,0,449.81)"/>
<path style="fill:none;stroke-width:10;stroke-linecap:round;stroke-linejoin:round;stroke:rgb(100%,0%,0%);stroke-opacity:1;stroke-miterlimit:10;" d="M 2962.421875 3377.94375 L 4886.71875 260.014063 " transform="matrix(0.1,0,0,-0.1,0,449.81)"/>
<path style="fill:none;stroke-width:10;stroke-linecap:round;stroke-linejoin:round;stroke:rgb(100%,0%,0%);stroke-opacity:1;stroke-miterlimit:10;" d="M 2465.859375 2732.865625 L 3210.742188 1657.709375 " transform="matrix(0.1,0,0,-0.1,0,449.81)"/>
<path style="fill:none;stroke-width:10;stroke-linecap:round;stroke-linejoin:round;stroke:rgb(100%,0%,0%);stroke-opacity:1;stroke-miterlimit:10;" d="M 1783.046875 1765.209375 L 3210.742188 1657.709375 " transform="matrix(0.1,0,0,-0.1,0,449.81)"/>
<path style="fill:none;stroke-width:10;stroke-linecap:round;stroke-linejoin:round;stroke:rgb(100%,0%,0%);stroke-opacity:1;stroke-miterlimit:10;" d="M 2341.71875 1872.748438 L 3210.742188 1657.709375 " transform="matrix(0.1,0,0,-0.1,0,449.81)"/>
<path style="fill:none;stroke-width:10;stroke-linecap:round;stroke-linejoin:round;stroke:rgb(100%,0%,0%);stroke-opacity:1;stroke-miterlimit:10;" d="M 2652.070312 2195.2875 L 3210.742188 1657.709375 " transform="matrix(0.1,0,0,-0.1,0,449.81)"/>
<path style="fill:none;stroke-width:10;stroke-linecap:round;stroke-linejoin:round;stroke:rgb(100%,0%,0%);stroke-opacity:1;stroke-miterlimit:10;" d="M 2652.070312 1980.248438 L 3210.742188 1657.709375 " transform="matrix(0.1,0,0,-0.1,0,449.81)"/>
<path style="fill:none;stroke-width:10;stroke-linecap:round;stroke-linejoin:round;stroke:rgb(100%,0%,0%);stroke-opacity:1;stroke-miterlimit:10;" d="M 3210.742188 1657.709375 L 3645.234375 1120.13125 " transform="matrix(0.1,0,0,-0.1,0,449.81)"/>
<path style="fill:none;stroke-width:10;stroke-linecap:round;stroke-linejoin:round;stroke:rgb(100%,0%,0%);stroke-opacity:1;stroke-miterlimit:10;" d="M 3086.601562 1012.63125 L 4203.90625 367.553125 " transform="matrix(0.1,0,0,-0.1,0,449.81)"/>
<path style="fill:none;stroke-width:10;stroke-linecap:round;stroke-linejoin:round;stroke:rgb(100%,0%,0%);stroke-opacity:1;stroke-miterlimit:10;" d="M 3334.882812 1227.63125 L 3645.234375 1120.13125 " transform="matrix(0.1,0,0,-0.1,0,449.81)"/>
<path style="fill:none;stroke-width:10;stroke-linecap:round;stroke-linejoin:round;stroke:rgb(100%,0%,0%);stroke-opacity:1;stroke-miterlimit:10;" d="M 3645.234375 1120.13125 L 4203.90625 367.553125 " transform="matrix(0.1,0,0,-0.1,0,449.81)"/>
<path style="fill:none;stroke-width:10;stroke-linecap:round;stroke-linejoin:round;stroke:rgb(100%,0%,0%);stroke-opacity:1;stroke-miterlimit:10;" d="M 417.421875 260.014063 L 851.953125 152.514063 " transform="matrix(0.1,0,0,-0.1,0,449.81)"/>
<path style="fill:none;stroke-width:10;stroke-linecap:round;stroke-linejoin:round;stroke:rgb(100%,0%,0%);stroke-opacity:1;stroke-miterlimit:10;" d="M 851.953125 152.514063 L 5135 45.014063 " transform="matrix(0.1,0,0,-0.1,0,449.81)"/>
<path style="fill:none;stroke-width:10;stroke-linecap:round;stroke-linejoin:round;stroke:rgb(100%,0%,0%);stroke-opacity:1;stroke-miterlimit:10;" d="M 4203.90625 367.553125 L 4886.71875 260.014063 " transform="matrix(0.1,0,0,-0.1,0,449.81)"/>
<path style="fill:none;stroke-width:10;stroke-linecap:round;stroke-linejoin:round;stroke:rgb(100%,0%,0%);stroke-opacity:1;stroke-miterlimit:10;" d="M 4886.71875 260.014063 L 5135 45.014063 " transform="matrix(0.1,0,0,-0.1,0,449.81)"/>
<path style="fill:none;stroke-width:10;stroke-linecap:round;stroke-linejoin:round;stroke:rgb(0%,39.208984%,0%);stroke-opacity:1;stroke-miterlimit:10;" d="M 417.421875 475.053125 L 2590 4453.060938 " transform="matrix(0.1,0,0,-0.1,0,449.81)"/>
<path style="fill:none;stroke-width:10;stroke-linecap:round;stroke-linejoin:round;stroke:rgb(0%,39.208984%,0%);stroke-opacity:1;stroke-miterlimit:10;" d="M 789.882812 905.092188 L 2590 4453.060938 " transform="matrix(0.1,0,0,-0.1,0,449.81)"/>
<path style="fill:none;stroke-width:10;stroke-linecap:round;stroke-linejoin:round;stroke:rgb(0%,39.208984%,0%);stroke-opacity:1;stroke-miterlimit:10;" d="M 1038.164062 1120.13125 L 2590 4453.060938 " transform="matrix(0.1,0,0,-0.1,0,449.81)"/>
<path style="fill:none;stroke-width:10;stroke-linecap:round;stroke-linejoin:round;stroke:rgb(0%,39.208984%,0%);stroke-opacity:1;stroke-miterlimit:10;" d="M 2652.070312 3700.482813 L 2590 4453.060938 " transform="matrix(0.1,0,0,-0.1,0,449.81)"/>
<path style="fill:none;stroke-width:10;stroke-linecap:round;stroke-linejoin:round;stroke:rgb(0%,39.208984%,0%);stroke-opacity:1;stroke-miterlimit:10;" d="M 1845.117188 2087.7875 L 2652.070312 3700.482813 " transform="matrix(0.1,0,0,-0.1,0,449.81)"/>
<path style="fill:none;stroke-width:10;stroke-linecap:round;stroke-linejoin:round;stroke:rgb(0%,39.208984%,0%);stroke-opacity:1;stroke-miterlimit:10;" d="M 2652.070312 3270.404688 L 2652.070312 3700.482813 " transform="matrix(0.1,0,0,-0.1,0,449.81)"/>
<path style="fill:none;stroke-width:10;stroke-linecap:round;stroke-linejoin:round;stroke:rgb(0%,39.208984%,0%);stroke-opacity:1;stroke-miterlimit:10;" d="M 2962.421875 3377.94375 L 2590 4453.060938 " transform="matrix(0.1,0,0,-0.1,0,449.81)"/>
<path style="fill:none;stroke-width:10;stroke-linecap:round;stroke-linejoin:round;stroke:rgb(0%,39.208984%,0%);stroke-opacity:1;stroke-miterlimit:10;" d="M 2465.859375 2732.865625 L 2652.070312 3270.404688 " transform="matrix(0.1,0,0,-0.1,0,449.81)"/>
<path style="fill:none;stroke-width:10;stroke-linecap:round;stroke-linejoin:round;stroke:rgb(0%,39.208984%,0%);stroke-opacity:1;stroke-miterlimit:10;" d="M 1783.046875 1765.209375 L 1845.117188 2087.7875 " transform="matrix(0.1,0,0,-0.1,0,449.81)"/>
<path style="fill:none;stroke-width:10;stroke-linecap:round;stroke-linejoin:round;stroke:rgb(0%,39.208984%,0%);stroke-opacity:1;stroke-miterlimit:10;" d="M 2341.71875 1872.748438 L 2465.859375 2732.865625 " transform="matrix(0.1,0,0,-0.1,0,449.81)"/>
<path style="fill:none;stroke-width:10;stroke-linecap:round;stroke-linejoin:round;stroke:rgb(0%,39.208984%,0%);stroke-opacity:1;stroke-miterlimit:10;" d="M 2652.070312 2195.2875 L 2465.859375 2732.865625 " transform="matrix(0.1,0,0,-0.1,0,449.81)"/>
<path style="fill:none;stroke-width:10;stroke-linecap:round;stroke-linejoin:round;stroke:rgb(0%,39.208984%,0%);stroke-opacity:1;stroke-miterlimit:10;" d="M 2652.070312 1980.248438 L 2652.070312 2195.2875 " transform="matrix(0.1,0,0,-0.1,0,449.81)"/>
<path style="fill:none;stroke-width:10;stroke-linecap:round;stroke-linejoin:round;stroke:rgb(0%,39.208984%,0%);stroke-opacity:1;stroke-miterlimit:10;" d="M 3210.742188 1657.709375 L 2652.070312 3270.404688 " transform="matrix(0.1,0,0,-0.1,0,449.81)"/>
<path style="fill:none;stroke-width:10;stroke-linecap:round;stroke-linejoin:round;stroke:rgb(0%,39.208984%,0%);stroke-opacity:1;stroke-miterlimit:10;" d="M 3086.601562 1012.63125 L 3210.742188 1657.709375 " transform="matrix(0.1,0,0,-0.1,0,449.81)"/>
<path style="fill:none;stroke-width:10;stroke-linecap:round;stroke-linejoin:round;stroke:rgb(0%,39.208984%,0%);stroke-opacity:1;stroke-miterlimit:10;" d="M 3334.882812 1227.63125 L 3210.742188 1657.709375 " transform="matrix(0.1,0,0,-0.1,0,449.81)"/>
<path style="fill:none;stroke-width:10;stroke-linecap:round;stroke-linejoin:round;stroke:rgb(0%,39.208984%,0%);stroke-opacity:1;stroke-miterlimit:10;" d="M 3645.234375 1120.13125 L 2652.070312 3270.404688 " transform="matrix(0.1,0,0,-0.1,0,449.81)"/>
<path style="fill:none;stroke-width:10;stroke-linecap:round;stroke-linejoin:round;stroke:rgb(0%,39.208984%,0%);stroke-opacity:1;stroke-miterlimit:10;" d="M 417.421875 260.014063 L 417.421875 475.053125 " transform="matrix(0.1,0,0,-0.1,0,449.81)"/>
<path style="fill:none;stroke-width:10;stroke-linecap:round;stroke-linejoin:round;stroke:rgb(0%,39.208984%,0%);stroke-opacity:1;stroke-miterlimit:10;" d="M 851.953125 152.514063 L 789.882812 905.092188 " transform="matrix(0.1,0,0,-0.1,0,449.81)"/>
<path style="fill:none;stroke-width:10;stroke-linecap:round;stroke-linejoin:round;stroke:rgb(0%,39.208984%,0%);stroke-opacity:1;stroke-miterlimit:10;" d="M 4203.90625 367.553125 L 2652.070312 3270.404688 " transform="matrix(0.1,0,0,-0.1,0,449.81)"/>
<path style="fill:none;stroke-width:10;stroke-linecap:round;stroke-linejoin:round;stroke:rgb(0%,39.208984%,0%);stroke-opacity:1;stroke-miterlimit:10;" d="M 4886.71875 260.014063 L 2590 4453.060938 " transform="matrix(0.1,0,0,-0.1,0,449.81)"/>
<path style="fill:none;stroke-width:30;stroke-linecap:round;stroke-linejoin:round;stroke:rgb(0%,0%,0%);stroke-opacity:1;stroke-miterlimit:10;" d="M 417.421875 475.053125 L 417.421875 475.053125 " transform="matrix(0.1,0,0,-0.1,0,449.81)"/>
<path style="fill:none;stroke-width:30;stroke-linecap:round;stroke-linejoin:round;stroke:rgb(0%,0%,0%);stroke-opacity:1;stroke-miterlimit:10;" d="M 789.882812 905.092188 L 789.882812 905.092188 " transform="matrix(0.1,0,0,-0.1,0,449.81)"/>
<path style="fill:none;stroke-width:30;stroke-linecap:round;stroke-linejoin:round;stroke:rgb(0%,0%,0%);stroke-opacity:1;stroke-miterlimit:10;" d="M 1038.164062 1120.13125 L 1038.164062 1120.13125 " transform="matrix(0.1,0,0,-0.1,0,449.81)"/>
<path style="fill:none;stroke-width:30;stroke-linecap:round;stroke-linejoin:round;stroke:rgb(0%,0%,0%);stroke-opacity:1;stroke-miterlimit:10;" d="M 2652.070312 3700.482813 L 2652.070312 3700.482813 " transform="matrix(0.1,0,0,-0.1,0,449.81)"/>
<path style="fill:none;stroke-width:30;stroke-linecap:round;stroke-linejoin:round;stroke:rgb(0%,0%,0%);stroke-opacity:1;stroke-miterlimit:10;" d="M 1845.117188 2087.7875 L 1845.117188 2087.7875 " transform="matrix(0.1,0,0,-0.1,0,449.81)"/>
<path style="fill:none;stroke-width:30;stroke-linecap:round;stroke-linejoin:round;stroke:rgb(0%,0%,0%);stroke-opacity:1;stroke-miterlimit:10;" d="M 2652.070312 3270.404688 L 2652.070312 3270.404688 " transform="matrix(0.1,0,0,-0.1,0,449.81)"/>
<path style="fill:none;stroke-width:30;stroke-linecap:round;stroke-linejoin:round;stroke:rgb(0%,0%,0%);stroke-opacity:1;stroke-miterlimit:10;" d="M 2962.421875 3377.94375 L 2962.421875 3377.94375 " transform="matrix(0.1,0,0,-0.1,0,449.81)"/>
<path style="fill:none;stroke-width:30;stroke-linecap:round;stroke-linejoin:round;stroke:rgb(0%,0%,0%);stroke-opacity:1;stroke-miterlimit:10;" d="M 2465.859375 2732.865625 L 2465.859375 2732.865625 " transform="matrix(0.1,0,0,-0.1,0,449.81)"/>
<path style="fill:none;stroke-width:30;stroke-linecap:round;stroke-linejoin:round;stroke:rgb(0%,0%,0%);stroke-opacity:1;stroke-miterlimit:10;" d="M 1783.046875 1765.209375 L 1783.046875 1765.209375 " transform="matrix(0.1,0,0,-0.1,0,449.81)"/>
<path style="fill:none;stroke-width:30;stroke-linecap:round;stroke-linejoin:round;stroke:rgb(0%,0%,0%);stroke-opacity:1;stroke-miterlimit:10;" d="M 2341.71875 1872.748438 L 2341.71875 1872.748438 " transform="matrix(0.1,0,0,-0.1,0,449.81)"/>
<path style="fill:none;stroke-width:30;stroke-linecap:round;stroke-linejoin:round;stroke:rgb(0%,0%,0%);stroke-opacity:1;stroke-miterlimit:10;" d="M 2652.070312 2195.2875 L 2652.070312 2195.2875 " transform="matrix(0.1,0,0,-0.1,0,449.81)"/>
<path style="fill:none;stroke-width:30;stroke-linecap:round;stroke-linejoin:round;stroke:rgb(0%,0%,0%);stroke-opacity:1;stroke-miterlimit:10;" d="M 2652.070312 1980.248438 L 2652.070312 1980.248438 " transform="matrix(0.1,0,0,-0.1,0,449.81)"/>
<path style="fill:none;stroke-width:30;stroke-linecap:round;stroke-linejoin:round;stroke:rgb(0%,0%,0%);stroke-opacity:1;stroke-miterlimit:10;" d="M 3210.742188 1657.709375 L 3210.742188 1657.709375 " transform="matrix(0.1,0,0,-0.1,0,449.81)"/>
<path style="fill:none;stroke-width:30;stroke-linecap:round;stroke-linejoin:round;stroke:rgb(0%,0%,0%);stroke-opacity:1;stroke-miterlimit:10;" d="M 3086.601562 1012.63125 L 3086.601562 1012.63125 " transform="matrix(0.1,0,0,-0.1,0,449.81)"/>
<path style="fill:none;stroke-width:30;stroke-linecap:round;stroke-linejoin:round;stroke:rgb(0%,0%,0%);stroke-opacity:1;stroke-miterlimit:10;" d="M 3334.882812 1227.63125 L 3334.882812 1227.63125 " transform="matrix(0.1,0,0,-0.1,0,449.81)"/>
<path style="fill:none;stroke-width:30;stroke-linecap:round;stroke-linejoin:round;stroke:rgb(0%,0%,0%);stroke-opacity:1;stroke-miterlimit:10;" d="M 3645.234375 1120.13125 L 3645.234375 1120.13125 " transform="matrix(0.1,0,0,-0.1,0,449.81)"/>
<path style="fill:none;stroke-width:30;stroke-linecap:round;stroke-linejoin:round;stroke:rgb(0%,0%,0%);stroke-opacity:1;stroke-miterlimit:10;" d="M 417.421875 260.014063 L 417.421875 260.014063 " transform="matrix(0.1,0,0,-0.1,0,449.81)"/>
<path style="fill:none;stroke-width:30;stroke-linecap:round;stroke-linejoin:round;stroke:rgb(0%,0%,0%);stroke-opacity:1;stroke-miterlimit:10;" d="M 851.953125 152.514063 L 851.953125 152.514063 " transform="matrix(0.1,0,0,-0.1,0,449.81)"/>
<path style="fill:none;stroke-width:30;stroke-linecap:round;stroke-linejoin:round;stroke:rgb(0%,0%,0%);stroke-opacity:1;stroke-miterlimit:10;" d="M 4203.90625 367.553125 L 4203.90625 367.553125 " transform="matrix(0.1,0,0,-0.1,0,449.81)"/>
<path style="fill:none;stroke-width:30;stroke-linecap:round;stroke-linejoin:round;stroke:rgb(0%,0%,0%);stroke-opacity:1;stroke-miterlimit:10;" d="M 4886.71875 260.014063 L 4886.71875 260.014063 " transform="matrix(0.1,0,0,-0.1,0,449.81)"/>
<path style="fill:none;stroke-width:30;stroke-linecap:round;stroke-linejoin:round;stroke:rgb(0%,0%,0%);stroke-opacity:1;stroke-miterlimit:10;" d="M 45 45.014063 L 45 45.014063 " transform="matrix(0.1,0,0,-0.1,0,449.81)"/>
<path style="fill:none;stroke-width:30;stroke-linecap:round;stroke-linejoin:round;stroke:rgb(0%,0%,0%);stroke-opacity:1;stroke-miterlimit:10;" d="M 5135 45.014063 L 5135 45.014063 " transform="matrix(0.1,0,0,-0.1,0,449.81)"/>
<path style="fill:none;stroke-width:30;stroke-linecap:round;stroke-linejoin:round;stroke:rgb(0%,0%,0%);stroke-opacity:1;stroke-miterlimit:10;" d="M 2590 4453.060938 L 2590 4453.060938 " transform="matrix(0.1,0,0,-0.1,0,449.81)"/>
<path style="fill-rule:nonzero;fill:rgb(66.601562%,16.722107%,0%);fill-opacity:1;stroke-width:10;stroke-linecap:round;stroke-linejoin:round;stroke:rgb(0%,0%,0%);stroke-opacity:1;stroke-miterlimit:10;" d="M 2652.070312 1980.248438 L 3210.742188 1657.709375 L 2652.070312 2195.2875 Z M 2652.070312 1980.248438 " transform="matrix(0.1,0,0,-0.1,0,449.81)"/>
<path style="fill-rule:nonzero;fill:rgb(33.325195%,16.722107%,33.325195%);fill-opacity:1;stroke-width:10;stroke-linecap:round;stroke-linejoin:round;stroke:rgb(0%,0%,0%);stroke-opacity:1;stroke-miterlimit:10;" d="M 851.953125 152.514063 L 789.882812 905.092188 L 417.421875 475.053125 Z M 851.953125 152.514063 " transform="matrix(0.1,0,0,-0.1,0,449.81)"/>
<path style="fill-rule:nonzero;fill:rgb(33.325195%,16.722107%,33.325195%);fill-opacity:1;stroke-width:10;stroke-linecap:round;stroke-linejoin:round;stroke:rgb(0%,0%,0%);stroke-opacity:1;stroke-miterlimit:10;" d="M 1038.164062 1120.13125 L 3086.601562 1012.63125 L 3210.742188 1657.709375 Z M 1038.164062 1120.13125 " transform="matrix(0.1,0,0,-0.1,0,449.81)"/>
<path style="fill-rule:nonzero;fill:rgb(66.601562%,0%,33.325195%);fill-opacity:1;stroke-width:10;stroke-linecap:round;stroke-linejoin:round;stroke:rgb(0%,0%,0%);stroke-opacity:1;stroke-miterlimit:10;" d="M 3086.601562 1012.63125 L 4203.90625 367.553125 L 3645.234375 1120.13125 Z M 3086.601562 1012.63125 " transform="matrix(0.1,0,0,-0.1,0,449.81)"/>
<path style="fill-rule:nonzero;fill:rgb(0%,16.722107%,66.601562%);fill-opacity:1;stroke-width:10;stroke-linecap:round;stroke-linejoin:round;stroke:rgb(0%,0%,0%);stroke-opacity:1;stroke-miterlimit:10;" d="M 1038.164062 1120.13125 L 1845.117188 2087.7875 L 2652.070312 3700.482813 Z M 1038.164062 1120.13125 " transform="matrix(0.1,0,0,-0.1,0,449.81)"/>
<path style="fill-rule:nonzero;fill:rgb(16.722107%,33.47168%,50%);fill-opacity:1;stroke-width:10;stroke-linecap:round;stroke-linejoin:round;stroke:rgb(0%,0%,0%);stroke-opacity:1;stroke-miterlimit:10;" d="M 2590 4453.060938 L 45 45.014063 L 417.421875 475.053125 Z M 2590 4453.060938 " transform="matrix(0.1,0,0,-0.1,0,449.81)"/>
<path style="fill-rule:nonzero;fill:rgb(33.325195%,33.47168%,0%);fill-opacity:1;stroke-width:10;stroke-linecap:round;stroke-linejoin:round;stroke:rgb(0%,0%,0%);stroke-opacity:1;stroke-miterlimit:10;" d="M 2465.859375 2732.865625 L 3210.742188 1657.709375 L 2652.070312 3270.404688 Z M 2465.859375 2732.865625 " transform="matrix(0.1,0,0,-0.1,0,449.81)"/>
<path style="fill-rule:nonzero;fill:rgb(33.325195%,0%,66.601562%);fill-opacity:1;stroke-width:10;stroke-linecap:round;stroke-linejoin:round;stroke:rgb(0%,0%,0%);stroke-opacity:1;stroke-miterlimit:10;" d="M 1038.164062 1120.13125 L 789.882812 905.092188 L 3086.601562 1012.63125 Z M 1038.164062 1120.13125 " transform="matrix(0.1,0,0,-0.1,0,449.81)"/>
<path style="fill-rule:nonzero;fill:rgb(33.325195%,16.722107%,33.325195%);fill-opacity:1;stroke-width:10;stroke-linecap:round;stroke-linejoin:round;stroke:rgb(0%,0%,0%);stroke-opacity:1;stroke-miterlimit:10;" d="M 2652.070312 3700.482813 L 2652.070312 3270.404688 L 2962.421875 3377.94375 Z M 2652.070312 3700.482813 " transform="matrix(0.1,0,0,-0.1,0,449.81)"/>
<path style="fill-rule:nonzero;fill:rgb(33.325195%,33.47168%,0%);fill-opacity:1;stroke-width:10;stroke-linecap:round;stroke-linejoin:round;stroke:rgb(0%,0%,0%);stroke-opacity:1;stroke-miterlimit:10;" d="M 3210.742188 1657.709375 L 3645.234375 1120.13125 L 2652.070312 3270.404688 Z M 3210.742188 1657.709375 " transform="matrix(0.1,0,0,-0.1,0,449.81)"/>
<path style="fill-rule:nonzero;fill:rgb(33.325195%,0%,66.601562%);fill-opacity:1;stroke-width:10;stroke-linecap:round;stroke-linejoin:round;stroke:rgb(0%,0%,0%);stroke-opacity:1;stroke-miterlimit:10;" d="M 45 45.014063 L 851.953125 152.514063 L 417.421875 260.014063 Z M 45 45.014063 " transform="matrix(0.1,0,0,-0.1,0,449.81)"/>
<path style="fill-rule:nonzero;fill:rgb(66.601562%,16.722107%,0%);fill-opacity:1;stroke-width:10;stroke-linecap:round;stroke-linejoin:round;stroke:rgb(0%,0%,0%);stroke-opacity:1;stroke-miterlimit:10;" d="M 417.421875 475.053125 L 417.421875 260.014063 L 851.953125 152.514063 Z M 417.421875 475.053125 " transform="matrix(0.1,0,0,-0.1,0,449.81)"/>
<path style="fill-rule:nonzero;fill:rgb(33.325195%,16.722107%,33.325195%);fill-opacity:1;stroke-width:10;stroke-linecap:round;stroke-linejoin:round;stroke:rgb(0%,0%,0%);stroke-opacity:1;stroke-miterlimit:10;" d="M 851.953125 152.514063 L 4203.90625 367.553125 L 789.882812 905.092188 Z M 851.953125 152.514063 " transform="matrix(0.1,0,0,-0.1,0,449.81)"/>
<path style="fill-rule:nonzero;fill:rgb(33.325195%,16.722107%,33.325195%);fill-opacity:1;stroke-width:10;stroke-linecap:round;stroke-linejoin:round;stroke:rgb(0%,0%,0%);stroke-opacity:1;stroke-miterlimit:10;" d="M 2465.859375 2732.865625 L 1845.117188 2087.7875 L 2341.71875 1872.748438 Z M 2465.859375 2732.865625 " transform="matrix(0.1,0,0,-0.1,0,449.81)"/>
<path style="fill-rule:nonzero;fill:rgb(0%,33.47168%,33.325195%);fill-opacity:1;stroke-width:10;stroke-linecap:round;stroke-linejoin:round;stroke:rgb(0%,0%,0%);stroke-opacity:1;stroke-miterlimit:10;" d="M 2652.070312 2195.2875 L 2465.859375 2732.865625 L 2341.71875 1872.748438 Z M 2652.070312 2195.2875 " transform="matrix(0.1,0,0,-0.1,0,449.81)"/>
<path style="fill-rule:nonzero;fill:rgb(50%,16.722107%,50%);fill-opacity:1;stroke-width:10;stroke-linecap:round;stroke-linejoin:round;stroke:rgb(0%,0%,0%);stroke-opacity:1;stroke-miterlimit:10;" d="M 5135 45.014063 L 851.953125 152.514063 L 45 45.014063 Z M 5135 45.014063 " transform="matrix(0.1,0,0,-0.1,0,449.81)"/>
<path style="fill-rule:nonzero;fill:rgb(33.325195%,16.722107%,33.325195%);fill-opacity:1;stroke-width:10;stroke-linecap:round;stroke-linejoin:round;stroke:rgb(0%,0%,0%);stroke-opacity:1;stroke-miterlimit:10;" d="M 2341.71875 1872.748438 L 1845.117188 2087.7875 L 1783.046875 1765.209375 Z M 2341.71875 1872.748438 " transform="matrix(0.1,0,0,-0.1,0,449.81)"/>
<path style="fill-rule:nonzero;fill:rgb(0%,16.722107%,66.601562%);fill-opacity:1;stroke-width:10;stroke-linecap:round;stroke-linejoin:round;stroke:rgb(0%,0%,0%);stroke-opacity:1;stroke-miterlimit:10;" d="M 2652.070312 3270.404688 L 1845.117188 2087.7875 L 2465.859375 2732.865625 Z M 2652.070312 3270.404688 " transform="matrix(0.1,0,0,-0.1,0,449.81)"/>
<path style="fill-rule:nonzero;fill:rgb(0%,33.47168%,33.325195%);fill-opacity:1;stroke-width:10;stroke-linecap:round;stroke-linejoin:round;stroke:rgb(0%,0%,0%);stroke-opacity:1;stroke-miterlimit:10;" d="M 789.882812 905.092188 L 2590 4453.060938 L 417.421875 475.053125 Z M 789.882812 905.092188 " transform="matrix(0.1,0,0,-0.1,0,449.81)"/>
<path style="fill-rule:nonzero;fill:rgb(0%,33.47168%,33.325195%);fill-opacity:1;stroke-width:10;stroke-linecap:round;stroke-linejoin:round;stroke:rgb(0%,0%,0%);stroke-opacity:1;stroke-miterlimit:10;" d="M 3334.882812 1227.63125 L 3210.742188 1657.709375 L 3086.601562 1012.63125 Z M 3334.882812 1227.63125 " transform="matrix(0.1,0,0,-0.1,0,449.81)"/>
<path style="fill-rule:nonzero;fill:rgb(0%,33.47168%,33.325195%);fill-opacity:1;stroke-width:10;stroke-linecap:round;stroke-linejoin:round;stroke:rgb(0%,0%,0%);stroke-opacity:1;stroke-miterlimit:10;" d="M 1038.164062 1120.13125 L 2590 4453.060938 L 789.882812 905.092188 Z M 1038.164062 1120.13125 " transform="matrix(0.1,0,0,-0.1,0,449.81)"/>
<path style="fill-rule:nonzero;fill:rgb(33.325195%,33.47168%,0%);fill-opacity:1;stroke-width:10;stroke-linecap:round;stroke-linejoin:round;stroke:rgb(0%,0%,0%);stroke-opacity:1;stroke-miterlimit:10;" d="M 3645.234375 1120.13125 L 4203.90625 367.553125 L 2652.070312 3270.404688 Z M 3645.234375 1120.13125 " transform="matrix(0.1,0,0,-0.1,0,449.81)"/>
<path style="fill-rule:nonzero;fill:rgb(0%,16.722107%,66.601562%);fill-opacity:1;stroke-width:10;stroke-linecap:round;stroke-linejoin:round;stroke:rgb(0%,0%,0%);stroke-opacity:1;stroke-miterlimit:10;" d="M 417.421875 475.053125 L 45 45.014063 L 417.421875 260.014063 Z M 417.421875 475.053125 " transform="matrix(0.1,0,0,-0.1,0,449.81)"/>
<path style="fill-rule:nonzero;fill:rgb(66.601562%,0%,33.325195%);fill-opacity:1;stroke-width:10;stroke-linecap:round;stroke-linejoin:round;stroke:rgb(0%,0%,0%);stroke-opacity:1;stroke-miterlimit:10;" d="M 5135 45.014063 L 4886.71875 260.014063 L 851.953125 152.514063 Z M 5135 45.014063 " transform="matrix(0.1,0,0,-0.1,0,449.81)"/>
<path style="fill-rule:nonzero;fill:rgb(0%,16.722107%,66.601562%);fill-opacity:1;stroke-width:10;stroke-linecap:round;stroke-linejoin:round;stroke:rgb(0%,0%,0%);stroke-opacity:1;stroke-miterlimit:10;" d="M 1783.046875 1765.209375 L 1845.117188 2087.7875 L 1038.164062 1120.13125 Z M 1783.046875 1765.209375 " transform="matrix(0.1,0,0,-0.1,0,449.81)"/>
<path style="fill-rule:nonzero;fill:rgb(0%,33.47168%,33.325195%);fill-opacity:1;stroke-width:10;stroke-linecap:round;stroke-linejoin:round;stroke:rgb(0%,0%,0%);stroke-opacity:1;stroke-miterlimit:10;" d="M 2652.070312 3700.482813 L 2590 4453.060938 L 1038.164062 1120.13125 Z M 2652.070312 3700.482813 " transform="matrix(0.1,0,0,-0.1,0,449.81)"/>
<path style="fill-rule:nonzero;fill:rgb(0%,33.47168%,33.325195%);fill-opacity:1;stroke-width:10;stroke-linecap:round;stroke-linejoin:round;stroke:rgb(0%,0%,0%);stroke-opacity:1;stroke-miterlimit:10;" d="M 2652.070312 3270.404688 L 2652.070312 3700.482813 L 1845.117188 2087.7875 Z M 2652.070312 3270.404688 " transform="matrix(0.1,0,0,-0.1,0,449.81)"/>
<path style="fill-rule:nonzero;fill:rgb(66.601562%,16.722107%,0%);fill-opacity:1;stroke-width:10;stroke-linecap:round;stroke-linejoin:round;stroke:rgb(0%,0%,0%);stroke-opacity:1;stroke-miterlimit:10;" d="M 3645.234375 1120.13125 L 3210.742188 1657.709375 L 3334.882812 1227.63125 Z M 3645.234375 1120.13125 " transform="matrix(0.1,0,0,-0.1,0,449.81)"/>
<path style="fill-rule:nonzero;fill:rgb(33.325195%,33.47168%,0%);fill-opacity:1;stroke-width:10;stroke-linecap:round;stroke-linejoin:round;stroke:rgb(0%,0%,0%);stroke-opacity:1;stroke-miterlimit:10;" d="M 2962.421875 3377.94375 L 4886.71875 260.014063 L 2590 4453.060938 Z M 2962.421875 3377.94375 " transform="matrix(0.1,0,0,-0.1,0,449.81)"/>
<path style="fill-rule:nonzero;fill:rgb(66.601562%,16.722107%,0%);fill-opacity:1;stroke-width:10;stroke-linecap:round;stroke-linejoin:round;stroke:rgb(0%,0%,0%);stroke-opacity:1;stroke-miterlimit:10;" d="M 2652.070312 2195.2875 L 3210.742188 1657.709375 L 2465.859375 2732.865625 Z M 2652.070312 2195.2875 " transform="matrix(0.1,0,0,-0.1,0,449.81)"/>
<path style="fill-rule:nonzero;fill:rgb(66.601562%,0%,33.325195%);fill-opacity:1;stroke-width:10;stroke-linecap:round;stroke-linejoin:round;stroke:rgb(0%,0%,0%);stroke-opacity:1;stroke-miterlimit:10;" d="M 3086.601562 1012.63125 L 789.882812 905.092188 L 4203.90625 367.553125 Z M 3086.601562 1012.63125 " transform="matrix(0.1,0,0,-0.1,0,449.81)"/>
<path style="fill-rule:nonzero;fill:rgb(66.601562%,0%,33.325195%);fill-opacity:1;stroke-width:10;stroke-linecap:round;stroke-linejoin:round;stroke:rgb(0%,0%,0%);stroke-opacity:1;stroke-miterlimit:10;" d="M 2341.71875 1872.748438 L 3210.742188 1657.709375 L 2652.070312 1980.248438 Z M 2341.71875 1872.748438 " transform="matrix(0.1,0,0,-0.1,0,449.81)"/>
<path style="fill-rule:nonzero;fill:rgb(33.325195%,0%,66.601562%);fill-opacity:1;stroke-width:10;stroke-linecap:round;stroke-linejoin:round;stroke:rgb(0%,0%,0%);stroke-opacity:1;stroke-miterlimit:10;" d="M 3086.601562 1012.63125 L 3645.234375 1120.13125 L 3334.882812 1227.63125 Z M 3086.601562 1012.63125 " transform="matrix(0.1,0,0,-0.1,0,449.81)"/>
<path style="fill-rule:nonzero;fill:rgb(33.325195%,0%,66.601562%);fill-opacity:1;stroke-width:10;stroke-linecap:round;stroke-linejoin:round;stroke:rgb(0%,0%,0%);stroke-opacity:1;stroke-miterlimit:10;" d="M 851.953125 152.514063 L 4886.71875 260.014063 L 4203.90625 367.553125 Z M 851.953125 152.514063 " transform="matrix(0.1,0,0,-0.1,0,449.81)"/>
<path style="fill-rule:nonzero;fill:rgb(66.601562%,0%,33.325195%);fill-opacity:1;stroke-width:10;stroke-linecap:round;stroke-linejoin:round;stroke:rgb(0%,0%,0%);stroke-opacity:1;stroke-miterlimit:10;" d="M 2652.070312 3270.404688 L 4886.71875 260.014063 L 2962.421875 3377.94375 Z M 2652.070312 3270.404688 " transform="matrix(0.1,0,0,-0.1,0,449.81)"/>
<path style="fill-rule:nonzero;fill:rgb(66.601562%,16.722107%,0%);fill-opacity:1;stroke-width:10;stroke-linecap:round;stroke-linejoin:round;stroke:rgb(0%,0%,0%);stroke-opacity:1;stroke-miterlimit:10;" d="M 4886.71875 260.014063 L 2652.070312 3270.404688 L 4203.90625 367.553125 Z M 4886.71875 260.014063 " transform="matrix(0.1,0,0,-0.1,0,449.81)"/>
<path style="fill-rule:nonzero;fill:rgb(0%,16.722107%,66.601562%);fill-opacity:1;stroke-width:10;stroke-linecap:round;stroke-linejoin:round;stroke:rgb(0%,0%,0%);stroke-opacity:1;stroke-miterlimit:10;" d="M 2341.71875 1872.748438 L 2652.070312 1980.248438 L 2652.070312 2195.2875 Z M 2341.71875 1872.748438 " transform="matrix(0.1,0,0,-0.1,0,449.81)"/>
<path style="fill-rule:nonzero;fill:rgb(50%,33.47168%,16.722107%);fill-opacity:1;stroke-width:10;stroke-linecap:round;stroke-linejoin:round;stroke:rgb(0%,0%,0%);stroke-opacity:1;stroke-miterlimit:10;" d="M 4886.71875 260.014063 L 5135 45.014063 L 2590 4453.060938 Z M 4886.71875 260.014063 " transform="matrix(0.1,0,0,-0.1,0,449.81)"/>
<path style="fill-rule:nonzero;fill:rgb(66.601562%,0%,33.325195%);fill-opacity:1;stroke-width:10;stroke-linecap:round;stroke-linejoin:round;stroke:rgb(0%,0%,0%);stroke-opacity:1;stroke-miterlimit:10;" d="M 1783.046875 1765.209375 L 3210.742188 1657.709375 L 2341.71875 1872.748438 Z M 1783.046875 1765.209375 " transform="matrix(0.1,0,0,-0.1,0,449.81)"/>
<path style="fill-rule:nonzero;fill:rgb(33.325195%,33.47168%,0%);fill-opacity:1;stroke-width:10;stroke-linecap:round;stroke-linejoin:round;stroke:rgb(0%,0%,0%);stroke-opacity:1;stroke-miterlimit:10;" d="M 2590 4453.060938 L 2652.070312 3700.482813 L 2962.421875 3377.94375 Z M 2590 4453.060938 " transform="matrix(0.1,0,0,-0.1,0,449.81)"/>
<path style="fill-rule:nonzero;fill:rgb(33.325195%,0%,66.601562%);fill-opacity:1;stroke-width:10;stroke-linecap:round;stroke-linejoin:round;stroke:rgb(0%,0%,0%);stroke-opacity:1;stroke-miterlimit:10;" d="M 1783.046875 1765.209375 L 1038.164062 1120.13125 L 3210.742188 1657.709375 Z M 1783.046875 1765.209375 " transform="matrix(0.1,0,0,-0.1,0,449.81)"/>
</g>
</svg>
